<svg xmlns="http://www.w3.org/2000/svg" xmlns:xlink="http://www.w3.org/1999/xlink" width="512" height="512" version="1.1" viewBox="0 0 512 512"><title>frog-light-background</title><desc>Created with Sketch.</desc><g id="Page-1" fill="none" fill-rule="evenodd" stroke="none" stroke-width="1"><g id="Frog-(Light-Background)"><path id="Face" fill="#1A1919" d="M256.018223,441 C114.597288,441 0,394.608841 0,328.319172 C0,257.051393 114.597288,158 256.018223,158 C397.370823,158 512,254.376588 512,328.319172 C512,390.85204 397.370823,441 256.018223,441 Z"/><g id="Eyes" transform="translate(9.251234, 72.000000)"><g id="Left" transform="translate(0.748766, 0.000000)"><path id="Socket" fill="#1A1919" d="M180,86.0119621 C180,133.472612 139.990476,172 90.5,172 C41.0792028,172 1,133.472612 1,86.0119621 C1,38.5321724 41.0792028,0 90.5,0 C139.990476,0 180,38.5321724 180,86.0119621"/><path id="Eyeball" fill="#FFF" d="M139,86.5118653 C139,112.145598 117.307004,133 90.5,133 C63.7299201,133 42,112.145598 42,86.5118653 C42,60.8211789 63.7299201,40 90.5,40 C117.307004,40 139,60.8211789 139,86.5118653"/><path id="Pupil" fill="#1A1919" d="M109,85.9952681 C109,95.9321767 100.517275,104 90,104 C79.5153149,104 71,95.9321767 71,85.9952681 C71,76.0063091 79.5153149,68 90,68 C100.517275,68 109,76.0063091 109,85.9952681"/></g><g id="Right" transform="translate(311.748766, 0.000000)"><path id="Socket" fill="#1A1919" d="M180,86.0119621 C180,133.472612 139.990476,172 90.5,172 C41.0792028,172 1,133.472612 1,86.0119621 C1,38.5321724 41.0792028,0 90.5,0 C139.990476,0 180,38.5321724 180,86.0119621"/><path id="Eyeball" fill="#FFF" d="M139,86.5118653 C139,112.145598 117.307004,133 90.5,133 C63.7299201,133 42,112.145598 42,86.5118653 C42,60.8211789 63.7299201,40 90.5,40 C117.307004,40 139,60.8211789 139,86.5118653"/><path id="Pupil" fill="#1A1919" d="M109,85.9952681 C109,95.9321767 100.517275,104 90,104 C79.5153149,104 71,95.9321767 71,85.9952681 C71,76.0063091 79.5153149,68 90,68 C100.517275,68 109,76.0063091 109,85.9952681"/></g></g><g id="Nose" fill="#FFF" transform="translate(199.762556, 219.430939)"><path id="Fill-28" d="M112.237444,9.01843814 C112.237444,13.7815675 108.197091,17.5690608 103.239714,17.5690608 C98.2732571,17.5690608 94.2374437,13.7815675 94.2374437,9.01843814 C94.2374437,4.39337046 98.2732571,0.569060773 103.239714,0.569060773 C108.197091,0.569060773 112.237444,4.39337046 112.237444,9.01843814"/><path id="Fill-29" d="M18.2374437,9.01843814 C18.2374437,13.7815675 14.2006123,17.5690608 9.23744374,17.5690608 C4.27427523,17.5690608 0.237443744,13.7815675 0.237443744,9.01843814 C0.237443744,4.39337046 4.27427523,0.569060773 9.23744374,0.569060773 C14.2006123,0.569060773 18.2374437,4.39337046 18.2374437,9.01843814"/></g></g></g></svg>